<?xml version="1.0" encoding="utf-8" standalone="no"?>
<!DOCTYPE svg PUBLIC "-//W3C//DTD SVG 1.1//EN"
  "http://www.w3.org/Graphics/SVG/1.1/DTD/svg11.dtd">
<svg xmlns:xlink="http://www.w3.org/1999/xlink" width="110.88pt" height="110.88pt" viewBox="0 0 110.88 110.88" xmlns="http://www.w3.org/2000/svg" version="1.1">
 <metadata>
  <rdf:RDF xmlns:dc="http://purl.org/dc/elements/1.1/" xmlns:cc="http://creativecommons.org/ns#" xmlns:rdf="http://www.w3.org/1999/02/22-rdf-syntax-ns#">
   <cc:Work>
    <dc:type rdf:resource="http://purl.org/dc/dcmitype/StillImage"/>
    <dc:date>2025-09-15T23:14:08.925605</dc:date>
    <dc:format>image/svg+xml</dc:format>
    <dc:creator>
     <cc:Agent>
      <dc:title>Matplotlib v3.6.3, https://matplotlib.org/</dc:title>
     </cc:Agent>
    </dc:creator>
   </cc:Work>
  </rdf:RDF>
 </metadata>
 <defs>
  <style type="text/css">*{stroke-linejoin: round; stroke-linecap: butt}</style>
 </defs>
 <g id="figure_1">
  <g id="patch_1">
   <path d="M 0 110.88 
L 110.88 110.88 
L 110.88 0 
L 0 0 
L 0 110.88 
z
" style="fill: none"/>
  </g>
  <g id="axes_1">
   <g id="patch_2">
    <path d="M 33.264 110.88 
C 53.848004 110.88 73.591711 102.701889 88.1468 88.1468 
C 102.701889 73.591711 110.88 53.848004 110.88 33.264 
C 110.88 12.679996 102.701889 -7.063711 88.1468 -21.6188 
C 73.591711 -36.173889 53.848004 -44.352 33.264 -44.352 
C 12.679996 -44.352 -7.063711 -36.173889 -21.6188 -21.6188 
C -36.173889 -7.063711 -44.352 12.679996 -44.352 33.264 
C -44.352 53.848004 -36.173889 73.591711 -21.6188 88.1468 
C -7.063711 102.701889 12.679996 110.88 33.264 110.88 
z
" clip-path="url(#pedba5c37dd)" style="fill: #ff5a4d; opacity: 0.55; stroke: #ff5a4d; stroke-linejoin: miter"/>
   </g>
   <g id="patch_3">
    <path d="M 77.616 88.704 
C 95.259432 88.704 112.18261 81.69419 124.6584 69.2184 
C 137.13419 56.74261 144.144 39.819432 144.144 22.176 
C 144.144 4.532568 137.13419 -12.39061 124.6584 -24.8664 
C 112.18261 -37.34219 95.259432 -44.352 77.616 -44.352 
C 59.972568 -44.352 43.04939 -37.34219 30.5736 -24.8664 
C 18.09781 -12.39061 11.088 4.532568 11.088 22.176 
C 11.088 39.819432 18.09781 56.74261 30.5736 69.2184 
C 43.04939 81.69419 59.972568 88.704 77.616 88.704 
z
" clip-path="url(#pedba5c37dd)" style="fill: #59c9ff; opacity: 0.55; stroke: #59c9ff; stroke-linejoin: miter"/>
   </g>
   <g id="patch_4">
    <path d="M 44.352 149.688 
C 63.465718 149.688 81.79916 142.094039 95.3146 128.5786 
C 108.830039 115.06316 116.424 96.729718 116.424 77.616 
C 116.424 58.502282 108.830039 40.16884 95.3146 26.6534 
C 81.79916 13.137961 63.465718 5.544 44.352 5.544 
C 25.238282 5.544 6.90484 13.137961 -6.6106 26.6534 
C -20.126039 40.16884 -27.72 58.502282 -27.72 77.616 
C -27.72 96.729718 -20.126039 115.06316 -6.6106 128.5786 
C 6.90484 142.094039 25.238282 149.688 44.352 149.688 
z
" clip-path="url(#pedba5c37dd)" style="fill: #2ad1c9; opacity: 0.55; stroke: #2ad1c9; stroke-linejoin: miter"/>
   </g>
   <g id="patch_5">
    <path d="M 83.16 133.056 
C 99.333146 133.056 114.846059 126.630341 126.2822 115.1942 
C 137.718341 103.758059 144.144 88.245146 144.144 72.072 
C 144.144 55.898854 137.718341 40.385941 126.2822 28.9498 
C 114.846059 17.513659 99.333146 11.088 83.16 11.088 
C 66.986854 11.088 51.473941 17.513659 40.0378 28.9498 
C 28.601659 40.385941 22.176 55.898854 22.176 72.072 
C 22.176 88.245146 28.601659 103.758059 40.0378 115.1942 
C 51.473941 126.630341 66.986854 133.056 83.16 133.056 
z
" clip-path="url(#pedba5c37dd)" style="fill: #d88cff; opacity: 0.55; stroke: #d88cff; stroke-linejoin: miter"/>
   </g>
   <g id="patch_6">
    <path d="M 55.44 144.144 
C 78.964576 144.144 101.528813 134.797587 118.1632 118.1632 
C 134.797587 101.528813 144.144 78.964576 144.144 55.44 
C 144.144 31.915424 134.797587 9.351187 118.1632 -7.2832 
C 101.528813 -23.917587 78.964576 -33.264 55.44 -33.264 
C 31.915424 -33.264 9.351187 -23.917587 -7.2832 -7.2832 
C -23.917587 9.351187 -33.264 31.915424 -33.264 55.44 
C -33.264 78.964576 -23.917587 101.528813 -7.2832 118.1632 
C 9.351187 134.797587 31.915424 144.144 55.44 144.144 
z
" clip-path="url(#pedba5c37dd)" style="fill: #f8e47e; opacity: 0.55; stroke: #f8e47e; stroke-linejoin: miter"/>
   </g>
   <g id="patch_7">
    <path d="M 55.44 110.88 
L 55.436563 103.923068 
L 55.426252 101.042023 
L 55.409064 98.832233 
L 55.384999 96.97045 
L 55.354053 95.331543 
L 55.316223 93.851392 
L 55.271502 92.491945 
L 55.219887 91.228441 
L 55.16137 90.043703 
L 55.095944 88.92525 
L 55.0236 87.863672 
L 54.94433 86.851678 
L 54.858122 85.88348 
L 54.764966 84.954399 
L 54.664849 84.060587 
L 54.557758 83.198838 
L 54.443678 82.366451 
L 54.322593 81.561122 
L 54.194487 80.78087 
L 54.059342 80.02398 
L 53.917138 79.288954 
L 53.767856 78.574474 
L 53.611471 77.879379 
L 53.447963 77.202635 
L 53.277305 76.54332 
L 53.099471 75.900608 
L 52.914433 75.273753 
L 52.722162 74.662086 
L 52.522626 74.064995 
L 52.315791 73.481929 
L 52.101623 72.912381 
L 51.880084 72.355891 
L 51.651134 71.812036 
L 51.414731 71.280427 
L 51.170832 70.760706 
L 50.919389 70.252545 
L 50.660353 69.755637 
L 50.393672 69.269702 
L 50.11929 68.794476 
L 49.837149 68.329718 
L 49.547187 67.875202 
L 49.249337 67.430716 
L 48.943531 66.996065 
L 48.629696 66.571066 
L 48.307752 66.155547 
L 47.977618 65.749348 
L 47.639207 65.352319 
L 47.292424 64.964319 
L 46.937172 64.585216 
L 46.573346 64.214887 
L 46.200835 63.853215 
L 45.81952 63.50009 
L 45.429276 63.155409 
L 45.029968 62.819076 
L 44.621453 62.490997 
L 44.20358 62.171088 
L 43.776184 61.859267 
L 43.339092 61.555457 
L 42.892117 61.259586 
L 42.435061 60.971585 
L 41.967708 60.691389 
L 41.489828 60.418938 
L 41.001175 60.154173 
L 40.501481 59.89704 
L 39.99046 59.647488 
L 39.467799 59.405467 
L 38.933163 59.170932 
L 38.386187 58.943838 
L 37.826473 58.724145 
L 37.253591 58.511814 
L 36.667068 58.306807 
L 36.066387 58.10909 
L 35.450982 57.91863 
L 34.820229 57.735396 
L 34.173438 57.559359 
L 33.509847 57.390491 
L 32.828606 57.228766 
L 32.128766 57.074159 
L 31.409265 56.926648 
L 30.668902 56.786211 
L 29.90632 56.652827 
L 29.119969 56.526478 
L 28.308073 56.407146 
L 27.468575 56.294815 
L 26.599082 56.189468 
L 25.696775 56.091093 
L 24.758304 55.999675 
L 23.779634 55.915203 
L 22.755837 55.837665 
L 21.680794 55.767051 
L 20.546752 55.703353 
L 19.343642 55.646562 
L 18.057995 55.596671 
L 16.671083 55.553674 
L 15.155525 55.517565 
L 13.468404 55.48834 
L 11.535201 55.465994 
L 9.202763 55.450526 
L 6.024934 55.441933 
L -1 55.440663 
M 55.439506 111.88 
L 55.44 110.88 
" clip-path="url(#pedba5c37dd)" style="fill: none; stroke: #000000; stroke-linejoin: miter"/>
   </g>
  </g>
 </g>
 <defs>
  <clipPath id="pedba5c37dd">
   <path d="M 55.44 110.88 
L 55.436563 103.923068 
L 55.426252 101.042023 
L 55.409064 98.832233 
L 55.384999 96.97045 
L 55.354053 95.331543 
L 55.316223 93.851392 
L 55.271502 92.491945 
L 55.219887 91.228441 
L 55.16137 90.043703 
L 55.095944 88.92525 
L 55.0236 87.863672 
L 54.94433 86.851678 
L 54.858122 85.88348 
L 54.764966 84.954399 
L 54.664849 84.060587 
L 54.557758 83.198838 
L 54.443678 82.366451 
L 54.322593 81.561122 
L 54.194487 80.78087 
L 54.059342 80.02398 
L 53.917138 79.288954 
L 53.767856 78.574474 
L 53.611471 77.879379 
L 53.447963 77.202635 
L 53.277305 76.54332 
L 53.099471 75.900608 
L 52.914433 75.273753 
L 52.722162 74.662086 
L 52.522626 74.064995 
L 52.315791 73.481929 
L 52.101623 72.912381 
L 51.880084 72.355891 
L 51.651134 71.812036 
L 51.414731 71.280427 
L 51.170832 70.760706 
L 50.919389 70.252545 
L 50.660353 69.755637 
L 50.393672 69.269702 
L 50.11929 68.794476 
L 49.837149 68.329718 
L 49.547187 67.875202 
L 49.249337 67.430716 
L 48.943531 66.996065 
L 48.629696 66.571066 
L 48.307752 66.155547 
L 47.977618 65.749348 
L 47.639207 65.352319 
L 47.292424 64.964319 
L 46.937172 64.585216 
L 46.573346 64.214887 
L 46.200835 63.853215 
L 45.81952 63.50009 
L 45.429276 63.155409 
L 45.029968 62.819076 
L 44.621453 62.490997 
L 44.20358 62.171088 
L 43.776184 61.859267 
L 43.339092 61.555457 
L 42.892117 61.259586 
L 42.435061 60.971585 
L 41.967708 60.691389 
L 41.489828 60.418938 
L 41.001175 60.154173 
L 40.501481 59.89704 
L 39.99046 59.647488 
L 39.467799 59.405467 
L 38.933163 59.170932 
L 38.386187 58.943838 
L 37.826473 58.724145 
L 37.253591 58.511814 
L 36.667068 58.306807 
L 36.066387 58.10909 
L 35.450982 57.91863 
L 34.820229 57.735396 
L 34.173438 57.559359 
L 33.509847 57.390491 
L 32.828606 57.228766 
L 32.128766 57.074159 
L 31.409265 56.926648 
L 30.668902 56.786211 
L 29.90632 56.652827 
L 29.119969 56.526478 
L 28.308073 56.407146 
L 27.468575 56.294815 
L 26.599082 56.189468 
L 25.696775 56.091093 
L 24.758304 55.999675 
L 23.779634 55.915203 
L 22.755837 55.837665 
L 21.680794 55.767051 
L 20.546752 55.703353 
L 19.343642 55.646562 
L 18.057995 55.596671 
L 16.671083 55.553674 
L 15.155525 55.517565 
L 13.468404 55.48834 
L 11.535201 55.465994 
L 9.202763 55.450526 
L 6.024934 55.441933 
L -3.478533 55.440215 
L -7.777996 55.44537 
L -10.434521 55.457401 
L -12.539308 55.476307 
L -14.337025 55.502092 
L -15.931583 55.534759 
L -17.37865 55.574311 
L -18.712154 55.620755 
L -19.954576 55.674095 
L -21.121713 55.734338 
L -22.225161 55.801493 
L -23.273726 55.875567 
L -24.274278 55.956571 
L -25.232294 56.044515 
L -26.152226 56.13941 
L -27.037743 56.241269 
L -27.891915 56.350106 
L -28.717336 56.465936 
L -29.516221 56.588774 
L -30.290481 56.718638 
L -31.041772 56.855546 
L -31.771545 56.999518 
L -32.481074 57.150574 
L -33.171489 57.308737 
L -33.843793 57.47403 
L -34.498884 57.64648 
L -35.137565 57.826112 
L -35.760562 58.012955 
L -36.368531 58.20704 
L -36.962066 58.408397 
L -37.541707 58.617062 
L -38.107948 58.833069 
L -38.661241 59.056457 
L -39.202 59.287267 
L -39.730604 59.525539 
L -40.247405 59.77132 
L -40.752726 60.024656 
L -41.246865 60.285598 
L -41.730099 60.554199 
L -42.202685 60.830515 
L -42.664862 61.114606 
L -43.116852 61.406534 
L -43.558861 61.706365 
L -43.991083 62.014172 
L -44.413696 62.330027 
L -44.826871 62.65401 
L -45.230764 62.986205 
L -45.625523 63.3267 
L -46.011286 63.675591 
L -46.388184 64.032976 
L -46.756338 64.398963 
L -47.115863 64.773663 
L -47.466868 65.157199 
L -47.809453 65.549696 
L -48.143715 65.951292 
L -48.469743 66.362132 
L -48.787622 66.78237 
L -49.097433 67.212173 
L -49.399252 67.651718 
L -49.69315 68.101193 
L -49.979194 68.560803 
L -50.257448 69.030766 
L -50.527972 69.511315 
L -50.790824 70.002702 
L -51.046057 70.5052 
L -51.293722 71.019102 
L -51.533867 71.544724 
L -51.766538 72.082409 
L -51.991777 72.632531 
L -52.209626 73.195495 
L -52.420123 73.771742 
L -52.623304 74.361754 
L -52.819204 74.966061 
L -53.007854 75.585242 
L -53.189287 76.219937 
L -53.363529 76.870853 
L -53.530609 77.538774 
L -53.690553 78.224571 
L -53.843383 78.929222 
L -53.989124 79.65382 
L -54.127796 80.399603 
L -54.259419 81.167974 
L -54.384012 81.960535 
L -54.501592 82.779127 
L -54.612176 83.625884 
L -54.715779 84.503298 
L -54.812414 85.414307 
L -54.902094 86.362419 
L -54.984832 87.351869 
L -55.060637 88.387848 
L -55.129521 89.476838 
L -55.191492 90.627093 
L -55.246557 91.849409 
L -55.294724 93.158353 
L -55.335999 94.574411 
L -55.370387 96.12799 
L -55.397892 97.867799 
L -55.418517 99.881319 
L -55.432267 102.359754 
L -55.439141 105.96063 
L -55.439141 115.79937 
L -55.432267 119.400246 
L -55.418517 121.878681 
L -55.397892 123.892201 
L -55.370387 125.63201 
L -55.335999 127.185589 
L -55.294724 128.601647 
L -55.246557 129.910591 
L -55.191492 131.132907 
L -55.129521 132.283162 
L -55.060637 133.372152 
L -54.984832 134.408131 
L -54.902094 135.397581 
L -54.812414 136.345693 
L -54.715779 137.256702 
L -54.612176 138.134116 
L -54.501592 138.980873 
L -54.384012 139.799465 
L -54.259419 140.592026 
L -54.127796 141.360397 
L -53.989124 142.10618 
L -53.843383 142.830778 
L -53.690553 143.535429 
L -53.530609 144.221226 
L -53.363529 144.889147 
L -53.189287 145.540063 
L -53.007854 146.174758 
L -52.819204 146.793939 
L -52.623304 147.398246 
L -52.420123 147.988258 
L -52.209626 148.564505 
L -51.991777 149.127469 
L -51.766538 149.677591 
L -51.533867 150.215276 
L -51.293722 150.740898 
L -51.046057 151.2548 
L -50.790824 151.757298 
L -50.527972 152.248685 
L -50.257448 152.729234 
L -49.979194 153.199197 
L -49.69315 153.658807 
L -49.399252 154.108282 
L -49.097433 154.547827 
L -48.787622 154.97763 
L -48.469743 155.397868 
L -48.143715 155.808708 
L -47.809453 156.210304 
L -47.466868 156.602801 
L -47.115863 156.986337 
L -46.756338 157.361037 
L -46.388184 157.727024 
L -46.011286 158.084409 
L -45.625523 158.4333 
L -45.230764 158.773795 
L -44.826871 159.10599 
L -44.413696 159.429973 
L -43.991083 159.745828 
L -43.558861 160.053635 
L -43.116852 160.353466 
L -42.664862 160.645394 
L -42.202685 160.929485 
L -41.730099 161.205801 
L -41.246865 161.474402 
L -40.752726 161.735344 
L -40.247405 161.98868 
L -39.730604 162.234461 
L -39.202 162.472733 
L -38.661241 162.703543 
L -38.107948 162.926931 
L -37.541707 163.142938 
L -36.962066 163.351603 
L -36.368531 163.55296 
L -35.760562 163.747045 
L -35.137565 163.933888 
L -34.498884 164.11352 
L -33.843793 164.28597 
L -33.171489 164.451263 
L -32.481074 164.609426 
L -31.771545 164.760482 
L -31.041772 164.904454 
L -30.290481 165.041362 
L -29.516221 165.171226 
L -28.717336 165.294064 
L -27.891915 165.409894 
L -27.037743 165.518731 
L -26.152226 165.62059 
L -25.232294 165.715485 
L -24.274278 165.803429 
L -23.273726 165.884433 
L -22.225161 165.958507 
L -21.121713 166.025662 
L -19.954576 166.085905 
L -18.712154 166.139245 
L -17.37865 166.185689 
L -15.931583 166.225241 
L -14.337025 166.257908 
L -12.539308 166.283693 
L -10.434521 166.302599 
L -7.777996 166.31463 
L -3.478533 166.319785 
L 6.024934 166.318067 
L 9.202763 166.309474 
L 11.535201 166.294006 
L 13.468404 166.27166 
L 15.155525 166.242435 
L 16.671083 166.206326 
L 18.057995 166.163329 
L 19.343642 166.113438 
L 20.546752 166.056647 
L 21.680794 165.992949 
L 22.755837 165.922335 
L 23.779634 165.844797 
L 24.758304 165.760325 
L 25.696775 165.668907 
L 26.599082 165.570532 
L 27.468575 165.465185 
L 28.308073 165.352854 
L 29.119969 165.233522 
L 29.90632 165.107173 
L 30.668902 164.973789 
L 31.409265 164.833352 
L 32.128766 164.685841 
L 32.828606 164.531234 
L 33.509847 164.369509 
L 34.173438 164.200641 
L 34.820229 164.024604 
L 35.450982 163.84137 
L 36.066387 163.65091 
L 36.667068 163.453193 
L 37.253591 163.248186 
L 37.826473 163.035855 
L 38.386187 162.816162 
L 38.933163 162.589068 
L 39.467799 162.354533 
L 39.99046 162.112512 
L 40.501481 161.86296 
L 41.001175 161.605827 
L 41.489828 161.341062 
L 41.967708 161.068611 
L 42.435061 160.788415 
L 42.892117 160.500414 
L 43.339092 160.204543 
L 43.776184 159.900733 
L 44.20358 159.588912 
L 44.621453 159.269003 
L 45.029968 158.940924 
L 45.429276 158.604591 
L 45.81952 158.25991 
L 46.200835 157.906785 
L 46.573346 157.545113 
L 46.937172 157.174784 
L 47.292424 156.795681 
L 47.639207 156.407681 
L 47.977618 156.010652 
L 48.307752 155.604453 
L 48.629696 155.188934 
L 48.943531 154.763935 
L 49.249337 154.329284 
L 49.547187 153.884798 
L 49.837149 153.430282 
L 50.11929 152.965524 
L 50.393672 152.490298 
L 50.660353 152.004363 
L 50.919389 151.507455 
L 51.170832 150.999294 
L 51.414731 150.479573 
L 51.651134 149.947964 
L 51.880084 149.404109 
L 52.101623 148.847619 
L 52.315791 148.278071 
L 52.522626 147.695005 
L 52.722162 147.097914 
L 52.914433 146.486247 
L 53.099471 145.859392 
L 53.277305 145.21668 
L 53.447963 144.557365 
L 53.611471 143.880621 
L 53.767856 143.185526 
L 53.917138 142.471046 
L 54.059342 141.73602 
L 54.194487 140.97913 
L 54.322593 140.198878 
L 54.443678 139.393549 
L 54.557758 138.561162 
L 54.664849 137.699413 
L 54.764966 136.805601 
L 54.858122 135.87652 
L 54.94433 134.908322 
L 55.0236 133.896328 
L 55.095944 132.83475 
L 55.16137 131.716297 
L 55.219887 130.531559 
L 55.271502 129.268055 
L 55.316223 127.908608 
L 55.354053 126.428457 
L 55.384999 124.78955 
L 55.409064 122.927767 
L 55.426252 120.717977 
L 55.436563 117.836932 
z
"/>
  </clipPath>
 </defs>
</svg>
