<?xml version="1.0" encoding="utf-8" standalone="no"?>
<!DOCTYPE svg PUBLIC "-//W3C//DTD SVG 1.1//EN"
  "http://www.w3.org/Graphics/SVG/1.1/DTD/svg11.dtd">
<svg xmlns:xlink="http://www.w3.org/1999/xlink" width="110.88pt" height="110.88pt" viewBox="0 0 110.88 110.88" xmlns="http://www.w3.org/2000/svg" version="1.1">
 <metadata>
  <rdf:RDF xmlns:dc="http://purl.org/dc/elements/1.1/" xmlns:cc="http://creativecommons.org/ns#" xmlns:rdf="http://www.w3.org/1999/02/22-rdf-syntax-ns#">
   <cc:Work>
    <dc:type rdf:resource="http://purl.org/dc/dcmitype/StillImage"/>
    <dc:date>2025-09-15T21:17:43.326312</dc:date>
    <dc:format>image/svg+xml</dc:format>
    <dc:creator>
     <cc:Agent>
      <dc:title>Matplotlib v3.6.3, https://matplotlib.org/</dc:title>
     </cc:Agent>
    </dc:creator>
   </cc:Work>
  </rdf:RDF>
 </metadata>
 <defs>
  <style type="text/css">*{stroke-linejoin: round; stroke-linecap: butt}</style>
 </defs>
 <g id="figure_1">
  <g id="patch_1">
   <path d="M 0 110.88 
L 110.88 110.88 
L 110.88 0 
L 0 0 
L 0 110.88 
z
" style="fill: none"/>
  </g>
  <g id="axes_1">
   <g id="patch_2">
    <path d="M 110.88 110.88 
L 110.852365 91.179351 
L 110.769445 83.026019 
L 110.631199 76.780153 
L 110.437558 71.527798 
L 110.188422 66.915829 
L 109.883664 62.763744 
L 109.523125 58.96476 
L 109.106613 55.449652 
L 108.633902 52.170613 
L 108.10473 49.093068 
L 107.518794 46.191112 
L 106.875749 43.444785 
L 106.175207 40.838362 
L 105.416725 38.359219 
L 104.599808 35.997066 
L 103.7239 33.743405 
L 102.788378 31.591138 
L 101.792544 29.53428 
L 100.735617 27.56774 
L 99.616724 25.687158 
L 98.434886 23.888775 
L 97.189008 22.169332 
L 95.877861 20.525988 
L 94.500062 18.956257 
L 93.054056 17.457956 
L 91.538087 16.029158 
L 89.950169 14.668161 
L 88.288046 13.373454 
L 86.549149 12.143696 
L 84.73054 10.977692 
L 82.828843 9.874378 
L 80.840158 8.832802 
L 78.759957 7.852116 
L 76.582942 6.931559 
L 74.302873 6.070455 
L 71.912331 5.268197 
L 69.402413 4.524244 
L 66.762303 3.838115 
L 63.978686 3.209383 
L 61.034901 2.637668 
L 57.909693 2.122638 
L 54.575298 1.663999 
L 50.99436 1.261501 
L 47.114692 0.914924 
L 42.859665 0.624085 
L 38.108745 0.388834 
L 32.652019 0.209049 
L 26.057043 0.08464 
L 17.061883 0.015545 
L -9.851092 0.001727 
L -22.024966 0.043181 
L -29.541 0.139928 
L -35.487636 0.292015 
L -40.556363 0.499519 
L -45.040263 0.762547 
L -49.095925 1.081234 
L -52.818478 1.455747 
L -56.270707 1.886286 
L -59.496529 2.373086 
L -62.528017 2.91642 
L -65.389384 3.516599 
L -68.099397 4.17398 
L -70.672919 4.888964 
L -73.121928 5.662006 
L -75.456222 6.493615 
L -77.683917 7.384366 
L -79.811808 8.334897 
L -81.845641 9.345928 
L -83.790308 10.418261 
L -85.650009 11.552794 
L -87.428369 12.750534 
L -89.128536 14.012608 
L -90.753256 15.340283 
L -92.304935 16.73498 
L -93.785689 18.198304 
L -95.197386 19.732064 
L -96.541676 21.338311 
L -97.820026 23.019373 
L -99.033738 24.777906 
L -100.183975 26.616952 
L -101.271769 28.540008 
L -102.298047 30.55112 
L -103.263633 32.654995 
L -104.169265 34.857147 
L -105.015604 37.164086 
L -105.803238 39.583571 
L -106.532692 42.124937 
L -107.204433 44.799562 
L -107.818878 47.621505 
L -108.376392 50.608438 
L -108.877298 53.783029 
L -109.321879 57.175091 
L -109.710379 60.825077 
L -110.043005 64.790132 
L -110.319934 69.155439 
L -110.541308 74.057906 
L -110.707241 79.744125 
L -110.817817 86.754237 
L -110.873091 96.948669 
L -110.873091 124.811331 
L -110.817817 135.005763 
L -110.707241 142.015875 
L -110.541308 147.702094 
L -110.319934 152.604561 
L -110.043005 156.969868 
L -109.710379 160.934923 
L -109.321879 164.584909 
L -108.877298 167.976971 
L -108.376392 171.151562 
L -107.818878 174.138495 
L -107.204433 176.960438 
L -106.532692 179.635063 
L -105.803238 182.176429 
L -105.015604 184.595914 
L -104.169265 186.902853 
L -103.263633 189.105005 
L -102.298047 191.20888 
L -101.271769 193.219992 
L -100.183975 195.143048 
L -99.033738 196.982094 
L -97.820026 198.740627 
L -96.541676 200.421689 
L -95.197386 202.027936 
L -93.785689 203.561696 
L -92.304935 205.02502 
L -90.753256 206.419717 
L -89.128536 207.747392 
L -87.428369 209.009466 
L -85.650009 210.207206 
L -83.790308 211.341739 
L -81.845641 212.414072 
L -79.811808 213.425103 
L -77.683917 214.375634 
L -75.456222 215.266385 
L -73.121928 216.097994 
L -70.672919 216.871036 
L -68.099397 217.58602 
L -65.389384 218.243401 
L -62.528017 218.84358 
L -59.496529 219.386914 
L -56.270707 219.873714 
L -52.818478 220.304253 
L -49.095925 220.678766 
L -45.040263 220.997453 
L -40.556363 221.260481 
L -35.487636 221.467985 
L -29.541 221.620072 
L -22.024966 221.716819 
L -9.851092 221.758273 
L 17.061883 221.744455 
L 26.057043 221.67536 
L 32.652019 221.550951 
L 38.108745 221.371166 
L 42.859665 221.135915 
L 47.114692 220.845076 
L 50.99436 220.498499 
L 54.575298 220.096001 
L 57.909693 219.637362 
L 61.034901 219.122332 
L 63.978686 218.550617 
L 66.762303 217.921885 
L 69.402413 217.235756 
L 71.912331 216.491803 
L 74.302873 215.689545 
L 76.582942 214.828441 
L 78.759957 213.907884 
L 80.840158 212.927198 
L 82.828843 211.885622 
L 84.73054 210.782308 
L 86.549149 209.616304 
L 88.288046 208.386546 
L 89.950169 207.091839 
L 91.538087 205.730842 
L 93.054056 204.302044 
L 94.500062 202.803743 
L 95.877861 201.234012 
L 97.189008 199.590668 
L 98.434886 197.871225 
L 99.616724 196.072842 
L 100.735617 194.19226 
L 101.792544 192.22572 
L 102.788378 190.168862 
L 103.7239 188.016595 
L 104.599808 185.762934 
L 105.416725 183.400781 
L 106.175207 180.921638 
L 106.875749 178.315215 
L 107.518794 175.568888 
L 108.10473 172.666932 
L 108.633902 169.589387 
L 109.106613 166.310348 
L 109.523125 162.79524 
L 109.883664 158.996256 
L 110.188422 154.844171 
L 110.437558 150.232202 
L 110.631199 144.979847 
L 110.769445 138.733981 
L 110.852365 130.580649 
z
" clip-path="url(#pa7c0308ab6)" style="fill: #ff5a4d; opacity: 0.8"/>
   </g>
   <g id="patch_3">
    <path d="M 94.248 110.88 
L 94.22451 94.134448 
L 94.154028 87.204116 
L 94.036519 81.89513 
L 93.871924 77.430629 
L 93.660159 73.510455 
L 93.401115 69.981182 
L 93.094656 66.752046 
L 92.740621 63.764204 
L 92.338817 60.977021 
L 91.88902 58.361108 
L 91.390975 55.894445 
L 90.844387 53.560067 
L 90.248926 51.344608 
L 89.604216 49.237336 
L 88.909837 47.229506 
L 88.165315 45.313894 
L 87.370121 43.484467 
L 86.523662 41.736138 
L 85.625274 40.064579 
L 84.674215 38.466084 
L 83.669653 36.937459 
L 82.610657 35.475932 
L 81.496182 34.07909 
L 80.325053 32.744819 
L 79.095947 31.471263 
L 77.807374 30.256784 
L 76.457644 29.099937 
L 75.044839 27.999436 
L 73.566777 26.954141 
L 72.020959 25.963038 
L 70.404517 25.025221 
L 68.714135 24.139882 
L 66.945963 23.306298 
L 65.095501 22.523826 
L 63.157442 21.791887 
L 61.125482 21.109967 
L 58.992051 20.477607 
L 56.747958 19.894398 
L 54.381883 19.359975 
L 51.879666 18.874018 
L 49.223239 18.436242 
L 46.389003 18.0464 
L 43.345206 17.704275 
L 40.047488 17.409685 
L 36.430715 17.162472 
L 32.392433 16.962509 
L 27.754216 16.809692 
L 22.148487 16.703944 
L 14.5026 16.645213 
L -8.373428 16.633468 
L -18.721221 16.668704 
L -25.10985 16.750938 
L -30.164491 16.880212 
L -34.472909 17.056591 
L -38.284224 17.280165 
L -41.731536 17.551049 
L -44.895706 17.869385 
L -47.830101 18.235343 
L -50.57205 18.649123 
L -53.148814 19.110957 
L -55.580976 19.621109 
L -57.884488 20.179883 
L -60.071982 20.787619 
L -62.153639 21.444705 
L -64.137789 22.151573 
L -66.031329 22.908711 
L -67.840037 23.716663 
L -69.568795 24.576039 
L -71.221762 25.487522 
L -72.802507 26.451875 
L -74.314113 27.469954 
L -75.759255 28.542717 
L -77.140267 29.67124 
L -78.459195 30.856733 
L -79.717836 32.100558 
L -80.917778 33.404254 
L -82.060424 34.769564 
L -83.147022 36.198467 
L -84.178678 37.69322 
L -85.156378 39.256409 
L -86.081004 40.891007 
L -86.95334 42.600452 
L -87.774088 44.388745 
L -88.543876 46.260575 
L -89.263263 48.221473 
L -89.932752 50.278035 
L -90.552788 52.438196 
L -91.123768 54.711627 
L -91.646046 57.110279 
L -92.119933 59.649172 
L -92.545704 62.347575 
L -92.923597 65.230827 
L -93.253822 68.333315 
L -93.536554 71.703612 
L -93.771944 75.414123 
L -93.960112 79.58122 
L -94.101155 84.414506 
L -94.195145 90.373101 
L -94.242128 99.038369 
L -94.242128 122.721631 
L -94.195145 131.386899 
L -94.101155 137.345494 
L -93.960112 142.17878 
L -93.771944 146.345877 
L -93.536554 150.056388 
L -93.253822 153.426685 
L -92.923597 156.529173 
L -92.545704 159.412425 
L -92.119933 162.110828 
L -91.646046 164.649721 
L -91.123768 167.048373 
L -90.552788 169.321804 
L -89.932752 171.481965 
L -89.263263 173.538527 
L -88.543876 175.499425 
L -87.774088 177.371255 
L -86.95334 179.159548 
L -86.081004 180.868993 
L -85.156378 182.503591 
L -84.178678 184.06678 
L -83.147022 185.561533 
L -82.060424 186.990436 
L -80.917778 188.355746 
L -79.717836 189.659442 
L -78.459195 190.903267 
L -77.140267 192.08876 
L -75.759255 193.217283 
L -74.314113 194.290046 
L -72.802507 195.308125 
L -71.221762 196.272478 
L -69.568795 197.183961 
L -67.840037 198.043337 
L -66.031329 198.851289 
L -64.137789 199.608427 
L -62.153639 200.315295 
L -60.071982 200.972381 
L -57.884488 201.580117 
L -55.580976 202.138891 
L -53.148814 202.649043 
L -50.57205 203.110877 
L -47.830101 203.524657 
L -44.895706 203.890615 
L -41.731536 204.208951 
L -38.284224 204.479835 
L -34.472909 204.703409 
L -30.164491 204.879788 
L -25.10985 205.009062 
L -18.721221 205.091296 
L -8.373428 205.126532 
L 14.5026 205.114787 
L 22.148487 205.056056 
L 27.754216 204.950308 
L 32.392433 204.797491 
L 36.430715 204.597528 
L 40.047488 204.350315 
L 43.345206 204.055725 
L 46.389003 203.7136 
L 49.223239 203.323758 
L 51.879666 202.885982 
L 54.381883 202.400025 
L 56.747958 201.865602 
L 58.992051 201.282393 
L 61.125482 200.650033 
L 63.157442 199.968113 
L 65.095501 199.236174 
L 66.945963 198.453702 
L 68.714135 197.620118 
L 70.404517 196.734779 
L 72.020959 195.796962 
L 73.566777 194.805859 
L 75.044839 193.760564 
L 76.457644 192.660063 
L 77.807374 191.503216 
L 79.095947 190.288737 
L 80.325053 189.015181 
L 81.496182 187.68091 
L 82.610657 186.284068 
L 83.669653 184.822541 
L 84.674215 183.293916 
L 85.625274 181.695421 
L 86.523662 180.023862 
L 87.370121 178.275533 
L 88.165315 176.446106 
L 88.909837 174.530494 
L 89.604216 172.522664 
L 90.248926 170.415392 
L 90.844387 168.199933 
L 91.390975 165.865555 
L 91.88902 163.398892 
L 92.338817 160.782979 
L 92.740621 157.995796 
L 93.094656 155.007954 
L 93.401115 151.778818 
L 93.660159 148.249545 
L 93.871924 144.329371 
L 94.036519 139.86487 
L 94.154028 134.555884 
L 94.22451 127.625552 
z
" clip-path="url(#pa7c0308ab6)" style="fill: #59c9ff; opacity: 0.8"/>
   </g>
   <g id="patch_4">
    <path d="M 77.616 110.88 
L 77.596655 97.089546 
L 77.538611 91.382213 
L 77.441839 87.010107 
L 77.30629 83.333459 
L 77.131895 80.105081 
L 76.918565 77.198621 
L 76.666188 74.539332 
L 76.374629 72.078756 
L 76.043732 69.783429 
L 75.673311 67.629148 
L 75.263156 65.597778 
L 74.813025 63.67535 
L 74.322645 61.850853 
L 73.791707 60.115453 
L 73.219866 58.461946 
L 72.60673 56.884383 
L 71.951865 55.377797 
L 71.254781 53.937996 
L 70.514932 52.561418 
L 69.731707 51.245011 
L 68.90442 49.986143 
L 68.032306 48.782532 
L 67.114502 47.632192 
L 66.150043 46.53338 
L 65.137839 45.484569 
L 64.076661 44.484411 
L 62.965118 43.531712 
L 61.801632 42.625418 
L 60.584404 41.764587 
L 59.311378 40.948384 
L 57.98019 40.176064 
L 56.588111 39.446961 
L 55.13197 38.760481 
L 53.608059 38.116092 
L 52.012011 37.513319 
L 50.338632 36.951738 
L 48.581689 36.430971 
L 46.733612 35.950681 
L 44.78508 35.510568 
L 42.724431 35.110368 
L 40.536785 34.749846 
L 38.202709 34.4288 
L 35.696052 34.14705 
L 32.980284 33.904446 
L 30.001765 33.70086 
L 26.676121 33.536184 
L 22.856413 33.410335 
L 18.23993 33.323248 
L 11.943318 33.274881 
L -6.895764 33.265209 
L -15.417476 33.294227 
L -20.6787 33.361949 
L -24.841345 33.46841 
L -28.389454 33.613663 
L -31.528184 33.797783 
L -34.367147 34.020864 
L -36.972934 34.283023 
L -39.389495 34.5844 
L -41.64757 34.92516 
L -43.769612 35.305494 
L -45.772569 35.725619 
L -47.669578 36.185786 
L -49.471044 36.686275 
L -51.18535 37.227404 
L -52.819355 37.809531 
L -54.378742 38.433056 
L -55.868266 39.098428 
L -57.291949 39.80615 
L -58.653216 40.556783 
L -59.955006 41.350956 
L -61.199858 42.189374 
L -62.389975 43.072826 
L -63.527279 44.002198 
L -64.613455 44.978486 
L -65.649983 46.002813 
L -66.63817 47.076445 
L -67.579173 48.200817 
L -68.474018 49.377561 
L -69.323617 50.608534 
L -70.128782 51.895866 
L -70.890239 53.242006 
L -71.608633 54.649784 
L -72.284543 56.122496 
L -72.918486 57.664003 
L -73.510923 59.278861 
L -74.062266 60.9725 
L -74.572884 62.751456 
L -75.043103 64.623693 
L -75.473214 66.599053 
L -75.863474 68.689906 
L -76.214109 70.91212 
L -76.525315 73.286564 
L -76.797265 75.841554 
L -77.030104 78.617092 
L -77.223954 81.672807 
L -77.378916 85.104534 
L -77.495069 89.084887 
L -77.572472 93.991966 
L -77.611164 101.128069 
L -77.611164 120.631931 
L -77.572472 127.768034 
L -77.495069 132.675113 
L -77.378916 136.655466 
L -77.223954 140.087193 
L -77.030104 143.142908 
L -76.797265 145.918446 
L -76.525315 148.473436 
L -76.214109 150.84788 
L -75.863474 153.070094 
L -75.473214 155.160947 
L -75.043103 157.136307 
L -74.572884 159.008544 
L -74.062266 160.7875 
L -73.510923 162.481139 
L -72.918486 164.095997 
L -72.284543 165.637504 
L -71.608633 167.110216 
L -70.890239 168.517994 
L -70.128782 169.864134 
L -69.323617 171.151466 
L -68.474018 172.382439 
L -67.579173 173.559183 
L -66.63817 174.683555 
L -65.649983 175.757187 
L -64.613455 176.781514 
L -63.527279 177.757802 
L -62.389975 178.687174 
L -61.199858 179.570626 
L -59.955006 180.409044 
L -58.653216 181.203217 
L -57.291949 181.95385 
L -55.868266 182.661572 
L -54.378742 183.326944 
L -52.819355 183.950469 
L -51.18535 184.532596 
L -49.471044 185.073725 
L -47.669578 185.574214 
L -45.772569 186.034381 
L -43.769612 186.454506 
L -41.64757 186.83484 
L -39.389495 187.1756 
L -36.972934 187.476977 
L -34.367147 187.739136 
L -31.528184 187.962217 
L -28.389454 188.146337 
L -24.841345 188.29159 
L -20.6787 188.398051 
L -15.417476 188.465773 
L -6.895764 188.494791 
L 11.943318 188.485119 
L 18.23993 188.436752 
L 22.856413 188.349665 
L 26.676121 188.223816 
L 30.001765 188.05914 
L 32.980284 187.855554 
L 35.696052 187.61295 
L 38.202709 187.3312 
L 40.536785 187.010154 
L 42.724431 186.649632 
L 44.78508 186.249432 
L 46.733612 185.809319 
L 48.581689 185.329029 
L 50.338632 184.808262 
L 52.012011 184.246681 
L 53.608059 183.643908 
L 55.13197 182.999519 
L 56.588111 182.313039 
L 57.98019 181.583936 
L 59.311378 180.811616 
L 60.584404 179.995413 
L 61.801632 179.134582 
L 62.965118 178.228288 
L 64.076661 177.275589 
L 65.137839 176.275431 
L 66.150043 175.22662 
L 67.114502 174.127808 
L 68.032306 172.977468 
L 68.90442 171.773857 
L 69.731707 170.514989 
L 70.514932 169.198582 
L 71.254781 167.822004 
L 71.951865 166.382203 
L 72.60673 164.875617 
L 73.219866 163.298054 
L 73.791707 161.644547 
L 74.322645 159.909147 
L 74.813025 158.08465 
L 75.263156 156.162222 
L 75.673311 154.130852 
L 76.043732 151.976571 
L 76.374629 149.681244 
L 76.666188 147.220668 
L 76.918565 144.561379 
L 77.131895 141.654919 
L 77.30629 138.426541 
L 77.441839 134.749893 
L 77.538611 130.377787 
L 77.596655 124.670454 
z
" clip-path="url(#pa7c0308ab6)" style="fill: #2ad1c9; opacity: 0.8"/>
   </g>
   <g id="patch_5">
    <path d="M 60.984 110.88 
L 60.968801 100.044643 
L 60.923195 95.56031 
L 60.847159 92.125084 
L 60.740657 89.236289 
L 60.603632 86.699706 
L 60.436015 84.416059 
L 60.237719 82.326618 
L 60.008637 80.393308 
L 59.748646 78.589837 
L 59.457601 76.897188 
L 59.135336 75.301112 
L 58.781662 73.790632 
L 58.396364 72.357099 
L 57.979199 70.99357 
L 57.529894 69.694386 
L 57.048145 68.454873 
L 56.533608 67.271126 
L 55.985899 66.139854 
L 55.404589 65.058257 
L 54.789198 64.023937 
L 54.139187 63.034826 
L 53.453955 62.089133 
L 52.732823 61.185293 
L 51.975034 60.321942 
L 51.179731 59.497876 
L 50.345948 58.712037 
L 49.472593 57.963488 
L 48.558425 57.2514 
L 47.602032 56.575033 
L 46.601797 55.933731 
L 45.555864 55.326908 
L 44.462087 54.754041 
L 43.317976 54.214664 
L 42.120618 53.708358 
L 40.86658 53.23475 
L 39.551782 52.793508 
L 38.171327 52.384334 
L 36.719267 52.006963 
L 35.188277 51.66116 
L 33.569196 51.346717 
L 31.850331 51.063451 
L 30.016414 50.8112 
L 28.046898 50.589825 
L 25.91308 50.399208 
L 23.572816 50.239247 
L 20.95981 50.109859 
L 17.958611 50.010977 
L 14.331374 49.942552 
L 9.384035 49.90455 
L -5.4181 49.89695 
L -12.113731 49.91975 
L -16.24755 49.97296 
L -19.5182 50.056608 
L -22.306 50.170736 
L -24.772145 50.315401 
L -27.002759 50.490679 
L -29.050163 50.696661 
L -30.948889 50.933457 
L -32.723091 51.201198 
L -34.390409 51.500031 
L -35.964161 51.83013 
L -37.454669 52.191689 
L -38.870106 52.58493 
L -40.217061 53.010103 
L -41.500922 53.467488 
L -42.726154 53.957401 
L -43.896495 54.480193 
L -45.015103 55.03626 
L -46.084669 55.626043 
L -47.107505 56.250037 
L -48.085603 56.908794 
L -49.020695 57.602935 
L -49.914291 58.333156 
L -50.767714 59.100239 
L -51.582129 59.905067 
L -52.358562 60.748635 
L -53.097922 61.632071 
L -53.801014 62.556655 
L -54.468556 63.523848 
L -55.101186 64.535324 
L -55.699473 65.593004 
L -56.263926 66.699116 
L -56.794998 67.856247 
L -57.293096 69.067431 
L -57.758582 70.336248 
L -58.191781 71.666964 
L -58.59298 73.064715 
L -58.962438 74.535759 
L -59.300383 76.087828 
L -59.607015 77.730641 
L -59.882514 79.476666 
L -60.127034 81.3423 
L -60.340708 83.349792 
L -60.523653 85.530573 
L -60.675964 87.931492 
L -60.79772 90.627848 
L -60.888983 93.755269 
L -60.949799 97.61083 
L -60.9802 103.217768 
L -60.9802 118.542232 
L -60.949799 124.14917 
L -60.888983 128.004731 
L -60.79772 131.132152 
L -60.675964 133.828508 
L -60.523653 136.229427 
L -60.340708 138.410208 
L -60.127034 140.4177 
L -59.882514 142.283334 
L -59.607015 144.029359 
L -59.300383 145.672172 
L -58.962438 147.224241 
L -58.59298 148.695285 
L -58.191781 150.093036 
L -57.758582 151.423752 
L -57.293096 152.692569 
L -56.794998 153.903753 
L -56.263926 155.060884 
L -55.699473 156.166996 
L -55.101186 157.224676 
L -54.468556 158.236152 
L -53.801014 159.203345 
L -53.097922 160.127929 
L -52.358562 161.011365 
L -51.582129 161.854933 
L -50.767714 162.659761 
L -49.914291 163.426844 
L -49.020695 164.157065 
L -48.085603 164.851206 
L -47.107505 165.509963 
L -46.084669 166.133957 
L -45.015103 166.72374 
L -43.896495 167.279807 
L -42.726154 167.802599 
L -41.500922 168.292512 
L -40.217061 168.749897 
L -38.870106 169.17507 
L -37.454669 169.568311 
L -35.964161 169.92987 
L -34.390409 170.259969 
L -32.723091 170.558802 
L -30.948889 170.826543 
L -29.050163 171.063339 
L -27.002759 171.269321 
L -24.772145 171.444599 
L -22.306 171.589264 
L -19.5182 171.703392 
L -16.24755 171.78704 
L -12.113731 171.84025 
L -5.4181 171.86305 
L 9.384035 171.85545 
L 14.331374 171.817448 
L 17.958611 171.749023 
L 20.95981 171.650141 
L 23.572816 171.520753 
L 25.91308 171.360792 
L 28.046898 171.170175 
L 30.016414 170.9488 
L 31.850331 170.696549 
L 33.569196 170.413283 
L 35.188277 170.09884 
L 36.719267 169.753037 
L 38.171327 169.375666 
L 39.551782 168.966492 
L 40.86658 168.52525 
L 42.120618 168.051642 
L 43.317976 167.545336 
L 44.462087 167.005959 
L 45.555864 166.433092 
L 46.601797 165.826269 
L 47.602032 165.184967 
L 48.558425 164.5086 
L 49.472593 163.796512 
L 50.345948 163.047963 
L 51.179731 162.262124 
L 51.975034 161.438058 
L 52.732823 160.574707 
L 53.453955 159.670867 
L 54.139187 158.725174 
L 54.789198 157.736063 
L 55.404589 156.701743 
L 55.985899 155.620146 
L 56.533608 154.488874 
L 57.048145 153.305127 
L 57.529894 152.065614 
L 57.979199 150.76643 
L 58.396364 149.402901 
L 58.781662 147.969368 
L 59.135336 146.458888 
L 59.457601 144.862812 
L 59.748646 143.170163 
L 60.008637 141.366692 
L 60.237719 139.433382 
L 60.436015 137.343941 
L 60.603632 135.060294 
L 60.740657 132.523711 
L 60.847159 129.634916 
L 60.923195 126.19969 
L 60.968801 121.715357 
z
" clip-path="url(#pa7c0308ab6)" style="fill: #d88cff; opacity: 0.8"/>
   </g>
   <g id="patch_6">
    <path d="M 44.352 110.88 
L 44.340946 102.99974 
L 44.307778 99.738408 
L 44.25248 97.240061 
L 44.175023 95.139119 
L 44.075369 93.294332 
L 43.953466 91.633497 
L 43.80925 90.113904 
L 43.642645 88.707861 
L 43.453561 87.396245 
L 43.241892 86.165227 
L 43.007517 85.004445 
L 42.7503 83.905914 
L 42.470083 82.863345 
L 42.16669 81.871687 
L 41.839923 80.926826 
L 41.48956 80.025362 
L 41.115351 79.164455 
L 40.717018 78.341712 
L 40.294247 77.555096 
L 39.846689 76.802863 
L 39.373954 76.08351 
L 38.875603 75.395733 
L 38.351144 74.738395 
L 37.800025 74.110503 
L 37.221622 73.511182 
L 36.615235 72.939663 
L 35.980068 72.395264 
L 35.315218 71.877381 
L 34.61966 71.385478 
L 33.892216 70.919077 
L 33.131537 70.477751 
L 32.336063 70.061121 
L 31.503983 69.668846 
L 30.633177 69.300624 
L 29.721149 68.956182 
L 28.764932 68.635279 
L 27.760965 68.337698 
L 26.704921 68.063246 
L 25.591474 67.811753 
L 24.41396 67.583067 
L 23.163877 67.377055 
L 21.830119 67.1936 
L 20.397744 67.0326 
L 18.845877 66.893969 
L 17.143866 66.777634 
L 15.243498 66.683534 
L 13.060808 66.61162 
L 10.422817 66.561856 
L 6.824753 66.534218 
L -3.940437 66.528691 
L -8.809986 66.545272 
L -11.8164 66.583971 
L -14.195055 66.644806 
L -16.222545 66.727808 
L -18.016105 66.833019 
L -19.63837 66.960494 
L -21.127391 67.110299 
L -22.508283 67.282514 
L -23.798612 67.477235 
L -25.011207 67.694568 
L -26.155753 67.93464 
L -27.239759 68.197592 
L -28.269168 68.483585 
L -29.248771 68.792802 
L -30.182489 69.125446 
L -31.073567 69.481746 
L -31.924723 69.861959 
L -32.738256 70.266371 
L -33.516123 70.695304 
L -34.260003 71.149118 
L -34.971347 71.628214 
L -35.651414 72.133043 
L -36.301302 72.664113 
L -36.921974 73.221992 
L -37.514276 73.807322 
L -38.078954 74.420826 
L -38.61667 75.063324 
L -39.12801 75.735749 
L -39.613495 76.439162 
L -40.07359 77.174781 
L -40.508708 77.944003 
L -40.919219 78.748448 
L -41.305453 79.589998 
L -41.667706 80.470859 
L -42.006242 81.393635 
L -42.321295 82.361428 
L -42.613077 83.377975 
L -42.881773 84.447825 
L -43.127551 85.576602 
L -43.350557 86.771375 
L -43.550919 88.041212 
L -43.728752 89.398036 
L -43.884151 90.858031 
L -44.017202 92.444053 
L -44.127974 94.190176 
L -44.216523 96.151162 
L -44.282897 98.42565 
L -44.327127 101.229695 
L -44.349237 105.307468 
L -44.349237 116.452532 
L -44.327127 120.530305 
L -44.282897 123.33435 
L -44.216523 125.608838 
L -44.127974 127.569824 
L -44.017202 129.315947 
L -43.884151 130.901969 
L -43.728752 132.361964 
L -43.550919 133.718788 
L -43.350557 134.988625 
L -43.127551 136.183398 
L -42.881773 137.312175 
L -42.613077 138.382025 
L -42.321295 139.398572 
L -42.006242 140.366365 
L -41.667706 141.289141 
L -41.305453 142.170002 
L -40.919219 143.011552 
L -40.508708 143.815997 
L -40.07359 144.585219 
L -39.613495 145.320838 
L -39.12801 146.024251 
L -38.61667 146.696676 
L -38.078954 147.339174 
L -37.514276 147.952678 
L -36.921974 148.538008 
L -36.301302 149.095887 
L -35.651414 149.626957 
L -34.971347 150.131786 
L -34.260003 150.610882 
L -33.516123 151.064696 
L -32.738256 151.493629 
L -31.924723 151.898041 
L -31.073567 152.278254 
L -30.182489 152.634554 
L -29.248771 152.967198 
L -28.269168 153.276415 
L -27.239759 153.562408 
L -26.155753 153.82536 
L -25.011207 154.065432 
L -23.798612 154.282765 
L -22.508283 154.477486 
L -21.127391 154.649701 
L -19.63837 154.799506 
L -18.016105 154.926981 
L -16.222545 155.032192 
L -14.195055 155.115194 
L -11.8164 155.176029 
L -8.809986 155.214728 
L -3.940437 155.231309 
L 6.824753 155.225782 
L 10.422817 155.198144 
L 13.060808 155.14838 
L 15.243498 155.076466 
L 17.143866 154.982366 
L 18.845877 154.866031 
L 20.397744 154.7274 
L 21.830119 154.5664 
L 23.163877 154.382945 
L 24.41396 154.176933 
L 25.591474 153.948247 
L 26.704921 153.696754 
L 27.760965 153.422302 
L 28.764932 153.124721 
L 29.721149 152.803818 
L 30.633177 152.459376 
L 31.503983 152.091154 
L 32.336063 151.698879 
L 33.131537 151.282249 
L 33.892216 150.840923 
L 34.61966 150.374522 
L 35.315218 149.882619 
L 35.980068 149.364736 
L 36.615235 148.820337 
L 37.221622 148.248818 
L 37.800025 147.649497 
L 38.351144 147.021605 
L 38.875603 146.364267 
L 39.373954 145.67649 
L 39.846689 144.957137 
L 40.294247 144.204904 
L 40.717018 143.418288 
L 41.115351 142.595545 
L 41.48956 141.734638 
L 41.839923 140.833174 
L 42.16669 139.888313 
L 42.470083 138.896655 
L 42.7503 137.854086 
L 43.007517 136.755555 
L 43.241892 135.594773 
L 43.453561 134.363755 
L 43.642645 133.052139 
L 43.80925 131.646096 
L 43.953466 130.126503 
L 44.075369 128.465668 
L 44.175023 126.620881 
L 44.25248 124.519939 
L 44.307778 122.021592 
L 44.340946 118.76026 
z
" clip-path="url(#pa7c0308ab6)" style="fill: #f8e47e; opacity: 0.8"/>
   </g>
  </g>
 </g>
 <defs>
  <clipPath id="pa7c0308ab6">
   <rect x="0" y="-0" width="110.88" height="110.88"/>
  </clipPath>
 </defs>
</svg>
